<?xml version="1.0" standalone="no"?>
<!DOCTYPE svg PUBLIC "-//W3C//DTD SVG 20010904//EN"
 "http://www.w3.org/TR/2001/REC-SVG-20010904/DTD/svg10.dtd">
<svg version="1.0" xmlns="http://www.w3.org/2000/svg"
 width="500.000000pt" height="500.000000pt" viewBox="0 0 500.000000 500.000000"
 preserveAspectRatio="xMidYMid meet">

<g transform="translate(0.000000,500.000000) scale(0.100000,-0.100000)"
fill="#000000" stroke="none">
<path d="M2370 4914 c-19 -2 -84 -9 -145 -15 -690 -68 -1337 -467 -1737 -1070
-83 -124 -172 -296 -156 -301 20 -7 97 79 141 157 93 164 261 380 404 516 465
444 1063 669 1713 646 183 -7 322 -25 479 -63 846 -206 1513 -886 1706 -1740
40 -178 64 -420 56 -567 l-1 -28 -33 25 c-91 70 -248 113 -382 104 -62 -3 -69
6 -29 43 18 16 28 20 31 12 3 -9 12 -9 30 -2 13 5 29 7 34 3 5 -3 9 -1 9 5 0
5 -8 15 -17 20 -10 6 -14 11 -10 11 11 0 -12 40 -23 40 -6 0 -10 -6 -10 -12 0
-19 -47 -39 -53 -23 -3 6 -1 18 3 25 11 17 4 30 -16 30 -8 0 -14 -9 -14 -19 0
-11 -4 -22 -10 -26 -5 -3 -7 -12 -4 -19 3 -8 1 -17 -5 -21 -6 -3 -11 -16 -11
-28 -1 -18 -2 -19 -10 -6 -12 21 -5 75 9 71 21 -4 23 26 2 47 -24 24 -55 18
-46 -9 5 -15 2 -17 -15 -13 -14 4 -20 1 -20 -11 0 -13 -5 -14 -26 -6 -33 13
-37 13 -31 -4 3 -7 0 -19 -6 -25 -8 -8 1 -11 34 -11 39 0 46 -4 62 -31 17 -30
17 -31 0 -24 -10 4 -61 18 -114 31 -123 31 -263 45 -364 37 l-81 -6 -172 153
-172 152 0 184 c0 100 -4 185 -9 188 -18 12 -100 18 -136 12 -37 -7 -62 -41
-44 -60 9 -10 13 -186 4 -186 -6 0 -466 159 -574 199 -48 18 -89 27 -95 23 -6
-5 -87 -64 -181 -132 -258 -188 -243 -172 -360 -367 -58 -96 -105 -178 -105
-184 0 -5 11 -9 25 -9 22 0 25 -4 25 -36 0 -33 -2 -36 -22 -30 -98 26 -190 38
-274 34 -92 -4 -94 -5 -161 -50 -37 -25 -106 -67 -152 -92 -82 -45 -85 -46
-177 -46 l-93 0 -6 38 c-10 55 -13 62 -30 62 -15 0 -17 -5 -19 -45 -1 -11 -11
-22 -26 -26 -24 -7 -24 -7 -2 -8 42 -2 22 -21 -22 -21 l-45 0 -12 57 c-11 48
-11 65 4 120 22 86 58 136 142 201 114 89 158 103 276 88 51 -6 73 -4 103 8
37 15 43 43 7 31 -10 -3 -56 4 -102 15 -46 11 -99 20 -116 20 -18 0 -33 4 -33
8 0 16 96 100 137 121 52 26 90 26 169 2 55 -18 68 -18 123 -7 66 14 73 12 64
-12 -6 -15 7 -15 48 2 12 5 14 0 11 -30 -4 -33 -2 -35 19 -32 13 2 29 -2 34
-9 17 -20 59 18 50 45 -3 12 -13 22 -20 22 -23 0 -27 18 -12 49 15 29 5 67
-14 55 -5 -3 -23 -2 -40 1 -29 7 -30 8 -12 20 11 8 32 17 46 20 18 5 27 14 27
26 0 12 11 23 26 30 28 10 64 4 64 -12 0 -5 7 -9 15 -9 8 0 15 -4 15 -10 0 -6
9 -6 25 0 15 6 26 6 30 0 11 -18 52 -11 58 9 4 16 15 20 63 23 38 2 59 8 62
17 4 10 0 12 -14 6 -41 -16 -49 -12 -46 28 2 31 0 37 -17 37 -11 0 -23 -5 -26
-10 -5 -8 -11 -7 -21 1 -16 13 -44 -4 -44 -27 0 -19 -17 -18 -28 1 -7 14 -11
14 -38 1 -22 -12 -30 -13 -33 -3 -7 19 -35 37 -50 32 -7 -3 -20 0 -27 6 -19
15 -39 2 -23 -17 8 -10 7 -17 -4 -29 -9 -8 -20 -15 -25 -15 -6 0 -13 -6 -16
-12 -5 -10 -7 -10 -12 0 -3 6 -10 9 -16 6 -5 -3 -12 3 -15 15 -3 12 -11 21
-18 21 -7 0 -16 7 -19 16 -3 9 -2 12 5 8 16 -9 51 33 47 59 -2 18 -9 22 -32
20 -17 -1 -36 2 -42 8 -19 15 -33 3 -27 -24 4 -20 3 -21 -10 -4 -14 16 -40 19
-62 5 -5 -3 -15 0 -22 7 -9 9 -4 16 23 28 19 9 34 23 34 32 0 8 6 15 13 15 7
1 5 6 -5 14 -10 7 -18 18 -18 23 0 6 -10 14 -22 18 -13 4 -26 8 -30 10 -5 1
-12 3 -18 4 -5 0 -10 7 -10 14 0 18 -38 39 -61 32 -11 -4 -19 -2 -19 5 0 6 5
8 10 5 6 -3 10 1 10 9 0 19 -13 20 -41 6 -11 -6 -19 -7 -18 -3 1 4 1 17 0 28
-2 19 -2 19 -15 3 -7 -10 -17 -18 -22 -18 -4 0 -3 5 3 11 11 11 6 49 -6 49 -3
0 -14 -7 -24 -14 -23 -18 -69 -9 -62 13 4 13 -4 16 -39 17 -38 1 -44 -2 -53
-25 -10 -25 -11 -25 -12 -3 -1 26 -19 29 -36 6 -10 -15 -13 -15 -27 0 -19 18
-63 22 -52 5 4 -7 0 -9 -14 -5 -24 8 -41 -11 -18 -20 9 -3 16 -12 16 -20 0
-16 34 -36 45 -26 4 4 5 -4 2 -17 -8 -34 14 -54 48 -41 34 13 32 14 37 -14 3
-16 0 -27 -9 -30 -9 -4 -11 -14 -7 -31 5 -20 3 -24 -10 -19 -8 3 -18 15 -21
25 -7 22 -37 18 -66 -7 -13 -12 -18 -11 -33 4 -16 16 -18 16 -36 -5 -10 -13
-20 -23 -23 -23 -3 0 -12 16 -21 35 -9 19 -20 34 -24 33 -17 -3 -61 15 -59 25
1 7 -11 10 -30 8 -22 -2 -33 2 -33 11 0 7 -9 19 -21 26 -17 11 -23 11 -36 0
-13 -10 -17 -10 -20 0 -5 13 -32 17 -34 5 -11 -66 10 -125 37 -103 11 10 15 9
20 -4 3 -9 11 -16 18 -16 6 0 25 -9 42 -19 25 -15 31 -24 27 -45 -7 -35 -41
-45 -62 -17 -18 24 -31 19 -31 -13 0 -17 -5 -14 -31 17 -17 20 -35 37 -41 37
-5 0 -23 -14 -39 -31 l-29 -31 -11 26 c-17 36 -46 43 -73 17 -17 -17 -18 -23
-8 -30 10 -6 6 -10 -14 -15 -28 -7 -44 -22 -44 -40 0 -4 6 -6 14 -3 8 3 17 3
20 0 7 -8 -33 -43 -49 -43 -18 0 -29 -51 -14 -61 7 -4 17 -5 22 -2 5 3 13 0
18 -8 6 -11 12 -9 30 6 l21 20 38 -44 c21 -25 46 -46 55 -47 24 -4 31 -14 10
-14 -14 0 -16 -3 -8 -11 6 -6 9 -18 6 -26 -3 -8 0 -19 7 -23 20 -12 -65 -23
-88 -11 -11 6 -22 7 -26 4 -3 -4 -18 0 -32 7 -22 12 -27 12 -34 0 -6 -8 -10
-27 -10 -42 0 -18 -7 -29 -21 -33 -18 -6 -20 -12 -14 -43 9 -48 12 -52 38 -52
12 0 29 -5 37 -10 13 -8 12 -10 -2 -10 -10 0 -18 -6 -18 -14 0 -12 -48 -30
-77 -29 -7 0 -13 -6 -13 -14 0 -13 -3 -13 -15 -3 -10 9 -14 23 -10 44 3 17 1
38 -4 46 -8 12 -13 12 -30 -4 -12 -11 -21 -14 -21 -8 0 13 -32 16 -43 5 -4 -3
-2 -12 3 -19 6 -6 10 -16 9 -20 -1 -5 -1 -19 0 -32 1 -22 2 -22 36 -7 31 12
37 12 41 0 3 -8 -3 -26 -15 -41 -11 -14 -19 -30 -16 -34 9 -15 59 -7 75 12 12
16 20 18 42 9 22 -8 27 -7 31 10 4 16 11 18 31 13 17 -4 26 -2 26 6 0 6 11 10
27 8 22 -2 33 -15 57 -64 17 -33 45 -77 61 -97 l30 -37 0 -145 c0 -141 -1
-144 -23 -155 -39 -17 -51 -12 -58 25 -13 69 -41 57 -46 -20 -3 -56 -1 -54
-133 -102 -38 -14 -95 -38 -126 -54 l-56 -28 -14 42 c-11 32 -14 113 -15 336
0 276 -1 294 -19 307 -15 11 -20 12 -26 2 -21 -40 -28 -437 -9 -598 49 -439
218 -845 500 -1200 94 -118 326 -342 450 -434 345 -257 728 -412 1155 -467
145 -19 463 -17 610 5 407 58 778 213 1123 468 120 89 322 285 425 413 526
653 665 1502 380 2330 -168 490 -585 982 -1058 1250 -268 152 -560 249 -871
290 -114 15 -390 27 -454 19z m-1398 -1571 c10 -70 -8 -129 -69 -227 -85 -136
-94 -144 -128 -109 -14 13 -16 29 -12 72 4 44 14 69 47 119 23 35 43 74 43 88
0 15 5 24 14 24 11 0 13 7 9 24 -5 21 -3 23 16 18 19 -5 20 -2 14 24 -6 23 -5
27 5 17 20 -20 29 -15 29 15 l0 27 13 -26 c8 -14 16 -44 19 -66z m407 46 c-6
-13 -16 -27 -22 -30 -14 -9 0 -42 14 -33 8 4 8 1 1 -13 -6 -10 -37 -31 -70
-47 -33 -16 -66 -39 -73 -52 -7 -13 -22 -26 -33 -29 -12 -4 -47 -18 -79 -31
-32 -14 -62 -24 -68 -22 -6 2 6 24 25 50 21 27 36 58 36 74 0 17 13 39 39 65
37 38 62 46 124 41 9 -1 17 3 17 8 0 6 7 10 15 10 8 0 15 4 15 10 0 14 54 40
63 30 5 -4 3 -18 -4 -31z m-350 -31 c0 -18 -4 -42 -9 -53 -8 -20 -9 -19 -9 1
-1 12 -4 36 -7 53 -5 24 -3 31 10 31 12 0 16 -9 15 -32z m579 -37 c12 -5 -24
-42 -46 -47 -15 -4 -49 -25 -76 -47 -51 -43 -226 -115 -226 -93 0 39 76 112
163 158 32 16 41 17 54 7 12 -11 17 -10 25 4 6 11 16 16 28 12 10 -3 21 -2 24
3 4 7 40 9 54 3z m-853 -22 c-4 -5 -1 -9 4 -9 6 0 11 4 11 9 0 5 11 11 26 14
23 4 25 2 19 -27 -8 -34 -31 -76 -43 -76 -5 0 -18 18 -30 41 -17 32 -19 43 -9
54 13 14 31 10 22 -6z m2580 11 c7 -12 -15 -12 -70 -1 l-40 9 52 1 c28 0 55
-3 58 -9z m-638 -125 c92 -69 182 -136 200 -150 25 -20 243 -334 243 -351 0
-2 -6 -4 -12 -4 -7 0 -59 72 -116 159 l-103 159 -185 136 c-102 75 -189 137
-194 139 -5 1 -101 -65 -213 -147 l-204 -150 -98 -163 c-55 -92 -104 -163
-113 -163 -12 0 -12 3 0 23 8 12 54 88 102 169 l88 147 216 161 c119 88 218
160 219 160 1 0 77 -56 170 -125z m-2017 73 c10 -24 28 -49 39 -56 26 -15 26
-38 1 -98 -25 -57 -19 -116 17 -184 29 -53 28 -113 -3 -175 -30 -61 -47 -66
-90 -25 -20 19 -45 54 -56 77 -16 36 -17 48 -7 88 12 46 11 47 -25 84 -36 37
-50 65 -20 40 13 -10 17 -10 24 1 5 8 12 11 16 7 11 -10 34 13 34 34 0 13 7
19 21 19 18 0 20 4 15 25 -5 19 -3 23 9 19 8 -4 17 1 21 10 3 9 10 13 15 10 5
-3 9 -1 9 5 0 5 2 16 6 24 3 9 -6 19 -26 27 -57 23 -71 96 -22 109 2 1 12 -18
22 -41z m2030 -8 c58 -22 188 -69 289 -105 101 -36 197 -73 214 -82 35 -18
237 -190 457 -389 188 -170 185 -166 118 -149 -29 7 -181 44 -337 81 l-284 68
-117 177 -118 176 -174 128 c-186 138 -205 152 -173 141 11 -5 67 -25 125 -46z
m-720 26 c0 -8 -7 -16 -15 -20 -15 -5 -21 14 -8 27 11 12 23 8 23 -7z m-369
-54 c15 -33 51 -37 73 -7 15 20 15 20 10 0 -5 -21 -55 -55 -80 -55 -19 0 -18
-15 2 -35 9 -9 15 -18 12 -20 -2 -2 -33 -7 -70 -11 -51 -5 -76 -3 -112 11 -44
17 -61 35 -33 35 8 0 24 12 38 26 31 35 108 84 130 84 10 0 23 -13 30 -28z
m-431 -87 c0 -9 -36 -62 -82 -121 -55 -69 -174 -164 -206 -164 -28 0 9 98 70
187 22 33 39 46 76 57 26 8 61 21 77 30 29 15 65 21 65 11z m-672 -168 c40
-41 42 -45 31 -75 -6 -18 -14 -32 -17 -32 -18 1 -41 30 -63 76 -41 85 -19 99
49 31z m2142 -132 l0 -105 -120 0 -120 0 0 105 0 105 120 0 120 0 0 -105z
m1620 -155 c0 -5 -5 -10 -11 -10 -5 0 -7 5 -4 10 3 6 8 10 11 10 2 0 4 -4 4
-10z m92 -42 c3 -7 -1 -18 -8 -25 -7 -7 -14 -18 -17 -25 -9 -26 -14 -2 -5 30
9 33 23 42 30 20z m-2414 -256 l-3 -122 62 -21 62 -20 5 -62 c4 -34 8 -80 9
-102 2 -22 4 85 5 238 l2 277 210 0 210 0 2 -297 3 -298 2 298 3 297 215 0
215 0 0 -156 c0 -143 -1 -155 -17 -152 -20 4 -31 58 -32 161 -1 32 -5 56 -10
53 -15 -9 -151 -204 -151 -215 0 -6 -16 -11 -35 -11 -33 0 -35 2 -25 20 12 22
1 47 -51 116 -17 23 -29 50 -27 60 3 15 12 9 43 -31 22 -28 47 -61 55 -73 15
-23 16 -22 70 49 30 40 63 83 73 96 l19 23 -146 0 -146 0 0 -177 1 -178 29 35
c28 32 31 33 46 18 15 -15 13 -21 -30 -73 -31 -39 -46 -66 -46 -86 l0 -29 70
0 c54 0 70 -3 70 -14 0 -26 62 -169 80 -185 24 -22 47 -128 32 -143 -7 -7 -12
-18 -12 -25 0 -17 34 -17 48 0 8 10 19 81 21 145 1 18 66 15 82 -4 8 -10 13
-44 14 -90 0 -62 3 -74 16 -74 27 0 37 22 44 103 l7 77 52 -6 c28 -4 53 -8 54
-10 5 -4 6 -66 1 -83 -5 -17 20 -25 39 -13 6 5 14 33 16 63 2 30 5 57 5 62 1
4 13 7 27 7 26 0 26 -1 22 -52 -3 -29 -7 -60 -9 -68 -3 -10 3 -15 16 -15 16 0
27 20 58 105 21 58 42 132 45 165 l7 60 43 3 c33 2 42 0 42 -12 0 -9 3 -16 8
-16 4 0 15 -18 25 -40 9 -22 23 -40 30 -40 8 0 19 -11 25 -25 7 -14 20 -25 31
-25 42 0 69 -83 36 -110 -22 -19 -18 -40 8 -40 33 0 47 18 47 61 0 40 14 59
24 33 11 -28 6 -57 -11 -70 -25 -17 -5 -37 33 -32 27 3 29 6 35 60 4 32 16 72
29 93 21 34 25 36 59 30 46 -10 49 -10 94 -1 l37 7 0 -64 c0 -48 -4 -66 -15
-71 -8 -3 -15 -15 -15 -26 0 -15 7 -20 28 -20 38 0 51 16 45 56 -4 24 0 40 16
61 15 19 21 38 20 63 -4 48 6 63 32 49 40 -21 59 -69 53 -129 -4 -30 -10 -59
-15 -65 -20 -21 -8 -35 31 -35 35 0 40 3 46 28 3 15 14 50 25 77 13 34 17 61
13 84 -6 29 -4 33 12 29 16 -3 20 -14 22 -61 3 -62 19 -80 48 -56 11 9 15 26
12 61 -1 26 -2 48 -2 48 3 0 90 -31 104 -37 8 -3 18 -5 23 -5 4 1 7 -3 7 -9 0
-6 6 -9 14 -6 8 3 16 1 18 -5 2 -6 18 -11 36 -12 18 0 32 -5 32 -9 0 -5 4 -6
9 -2 5 3 12 1 16 -5 8 -13 55 -13 55 0 0 6 -10 14 -22 19 -14 5 -17 10 -10 15
17 11 15 29 -3 22 -8 -3 -22 -9 -32 -13 -11 -4 -14 -3 -9 5 4 7 1 12 -8 12 -9
0 -16 5 -16 10 0 6 5 10 11 10 5 0 8 4 4 10 -3 5 -12 7 -20 3 -8 -3 -15 0 -15
6 0 6 -8 8 -17 4 -16 -6 -16 -5 -4 10 16 20 9 22 -19 5 -17 -11 -22 -10 -29 1
-7 11 -11 10 -20 -5 -6 -11 -11 -14 -11 -7 0 7 -7 10 -15 7 -8 -4 -17 1 -21 9
-3 9 -14 14 -24 12 -28 -5 -38 56 -24 157 l6 46 37 -10 c64 -18 240 -87 312
-123 48 -25 69 -41 69 -54 0 -28 -45 -180 -87 -290 -50 -135 -140 -314 -216
-430 l-65 -99 -101 33 c-192 64 -447 102 -601 90 -96 -7 -224 -32 -420 -81
-275 -68 -528 -103 -796 -108 -290 -6 -497 22 -879 119 -301 76 -385 90 -519
82 -105 -6 -336 -58 -434 -96 -29 -12 -57 -21 -63 -21 -14 0 -118 163 -178
278 -76 150 -138 310 -177 460 -39 152 -42 187 -16 195 9 3 64 23 122 45 97
38 281 92 310 92 19 0 7 -76 -20 -134 -23 -47 -120 -158 -137 -155 -26 5 -45
-4 -54 -25 -7 -14 -17 -22 -24 -20 -6 3 -18 -2 -25 -11 -12 -15 -15 -14 -26 7
l-13 23 -1 -26 c0 -19 -7 -28 -21 -32 -12 -3 -19 -12 -17 -19 5 -15 65 -21 74
-7 3 5 10 6 16 3 6 -4 14 -1 18 6 4 7 30 13 56 14 27 1 64 9 82 18 20 10 32
12 32 6 0 -6 3 -8 7 -5 3 4 12 2 20 -4 10 -9 13 -6 13 12 0 14 3 19 8 12 7
-12 102 -13 102 -1 0 4 7 5 15 2 10 -4 15 0 15 11 0 17 1 17 20 0 12 -11 20
-13 20 -6 0 7 5 9 10 6 6 -3 10 -1 10 6 0 8 4 8 15 -1 12 -10 15 -10 15 4 0 9
5 16 10 16 6 0 10 -4 10 -10 0 -5 9 -10 20 -10 11 0 20 5 20 11 0 6 5 7 13 2
22 -14 37 -12 37 5 1 15 2 14 11 -2 9 -14 13 -16 20 -5 15 25 22 0 11 -38 -9
-32 -8 -51 12 -118 l23 -80 38 -3 c36 -3 37 -3 32 25 l-6 28 13 -29 c10 -23
21 -30 49 -33 46 -4 51 6 24 48 -31 47 -44 90 -37 119 5 23 9 24 83 25 l77 0
15 -38 c8 -20 15 -59 15 -85 0 -59 17 -93 53 -105 41 -13 51 2 30 44 -11 22
-17 58 -17 107 -1 76 7 92 48 92 16 0 18 -5 13 -36 -6 -34 14 -74 37 -74 13 0
35 -32 36 -52 0 -12 8 -18 23 -18 35 0 37 7 16 56 -12 26 -19 60 -17 81 3 37
3 37 65 48 69 13 73 10 73 -45 0 -16 5 -32 11 -36 7 -4 7 -10 1 -16 -14 -14 1
-70 22 -82 14 -8 20 -8 23 1 4 10 10 9 26 -2 25 -18 57 -20 57 -4 0 7 -10 27
-21 46 -15 24 -22 52 -23 95 -1 57 1 62 29 82 16 12 39 30 51 42 16 15 31 20
53 16 47 -7 81 5 81 28 0 33 -41 107 -70 123 -15 9 -40 16 -56 16 -16 0 -51
-1 -79 -1 -27 -1 -70 6 -95 15 -25 8 -57 18 -72 21 -27 6 -51 25 -66 53 -6 10
-28 17 -60 21 -48 4 -52 3 -61 -21 -13 -34 -82 -46 -161 -27 -149 34 -237 20
-279 -43 l-24 -37 -24 22 c-31 29 -77 128 -66 139 16 16 387 22 563 10 173
-12 339 -34 421 -55 l49 -13 0 182 c0 100 3 185 8 189 9 10 14 -98 10 -252z
m2343 157 c6 -10 -12 -73 -25 -86 -1 -2 -36 8 -77 21 -41 13 -119 34 -174 47
-55 12 -104 27 -110 32 -6 6 63 7 184 4 144 -4 196 -8 202 -18z m169 -34 c127
-41 212 -75 282 -112 66 -34 68 -37 68 -74 0 -22 -3 -39 -7 -39 -5 0 -27 13
-51 29 -63 44 -277 148 -357 175 -45 16 -71 30 -73 41 -5 22 27 17 138 -20z
m-300 -100 c63 -8 156 -23 205 -33 190 -42 435 -135 435 -165 0 -20 -21 -141
-25 -145 -2 -3 -39 14 -81 37 -114 62 -251 117 -320 131 -56 11 -65 17 -95 57
-68 91 -209 127 -331 83 -54 -19 -69 -20 -105 -11 -40 11 -55 31 -45 60 5 15
158 10 362 -14z m12 -62 c18 -10 46 -39 63 -64 39 -57 39 -123 0 -229 -15 -42
-28 -101 -29 -135 -4 -86 -16 -143 -34 -157 -14 -12 -15 -5 -9 56 8 81 -7 114
-74 166 -21 18 -39 38 -39 46 0 9 -4 13 -10 9 -6 -3 -5 -15 2 -31 9 -18 9 -27
0 -36 -9 -9 -12 -6 -12 12 -1 24 -1 24 -12 5 -32 -58 -87 -69 -161 -32 -37 19
-47 21 -51 10 -3 -8 -10 -11 -16 -8 -6 3 -10 -4 -10 -16 0 -30 -38 -89 -58
-89 -9 0 -30 9 -47 20 -16 11 -43 20 -59 20 -36 0 -100 63 -128 128 -50 113
32 270 171 328 44 19 92 18 172 -3 65 -16 67 -16 120 5 68 27 170 25 221 -5z
m-2592 -112 c40 -41 69 -99 36 -72 -14 12 -16 12 -10 -3 3 -9 11 -16 16 -16 6
0 5 -6 -2 -15 -8 -10 -30 -15 -62 -15 -39 0 -54 5 -73 25 -15 14 -25 19 -25
11 0 -7 9 -21 19 -30 39 -35 7 -148 -52 -185 -30 -18 -37 -30 -43 -67 -3 -25
-1 -72 5 -105 13 -66 11 -78 -11 -55 -9 8 -18 43 -21 81 -7 70 -57 197 -65
163 -2 -10 -13 -18 -25 -19 -12 0 -40 -2 -62 -4 -51 -6 -75 2 -75 23 0 14 -3
14 -20 -4 -11 -11 -22 -30 -25 -42 -2 -12 -7 -28 -11 -34 -10 -15 -5 -83 7
-114 9 -25 0 -37 -18 -26 -6 4 -20 39 -32 78 -17 58 -19 75 -9 101 10 25 9 43
-5 92 -33 119 -13 204 54 228 48 17 132 16 197 -3 37 -11 72 -14 108 -10 68 8
81 13 87 37 4 14 14 19 42 19 30 0 45 -7 75 -39z m1297 7 c25 -32 22 -60 -10
-93 -18 -19 -40 -45 -50 -59 -22 -31 -31 -32 -58 -5 -18 18 -21 30 -17 86 3
42 9 68 19 74 21 13 105 11 116 -3z m1432 -139 c-1 -106 -11 -139 -24 -81 -3
16 -2 46 3 68 9 41 3 127 -12 154 -4 8 2 4 14 -9 18 -21 20 -35 19 -132z
m-1605 135 c27 -11 18 -27 -11 -20 l-28 7 25 -20 c14 -11 22 -22 19 -25 -3 -3
-21 10 -39 29 l-34 35 26 0 c15 0 33 -3 42 -6z m286 -1 c0 -12 -43 -53 -57
-53 -18 0 -16 10 5 26 16 13 16 13 -3 14 -17 0 -17 2 -5 10 17 11 60 13 60 3z
m-1270 -58 c62 -26 114 -32 125 -14 4 6 20 8 38 4 54 -11 65 -15 70 -28 3 -7
13 -29 22 -51 14 -34 14 -38 1 -33 -10 4 -13 1 -10 -7 14 -37 -56 -30 -74 6
l-11 23 0 -22 c-1 -13 -18 -36 -45 -58 -24 -20 -47 -47 -50 -60 -7 -27 -26
-34 -26 -10 0 8 -5 15 -11 15 -8 0 -10 15 -7 45 3 25 4 45 1 45 -2 0 -16 -13
-29 -30 -15 -17 -43 -34 -65 -40 -34 -9 -46 -8 -89 12 -28 13 -50 27 -50 31 0
5 5 5 10 2 6 -4 10 13 10 42 l0 49 35 1 c20 1 47 9 61 18 21 14 25 23 22 51
-2 19 0 34 4 34 5 0 35 -11 68 -25z m-578 -261 c3 -3 -1 -18 -8 -34 -13 -26
-12 -33 11 -85 29 -67 29 -65 11 -65 -19 0 -66 82 -66 114 0 49 31 91 52 70z
m143 -746 c14 -6 25 -15 25 -19 0 -4 -16 -34 -35 -66 -19 -32 -31 -59 -25 -61
5 -2 50 13 100 33 86 35 91 36 115 21 14 -9 25 -18 25 -20 0 -2 -45 -23 -100
-46 -78 -33 -99 -46 -96 -59 9 -29 26 -145 26 -179 l0 -33 -29 16 c-31 16 -32
19 -52 148 -14 90 -20 89 -64 -5 -16 -35 -30 -64 -31 -66 -2 -4 -64 27 -64 31
0 2 29 52 65 112 36 60 73 130 83 157 18 53 19 53 57 36z m2443 -40 c18 -18
14 -28 -11 -28 -33 0 -67 -28 -67 -55 0 -31 13 -38 88 -46 92 -10 134 -56 112
-125 -22 -67 -140 -107 -140 -47 0 7 11 13 25 13 27 0 65 31 65 54 0 24 -25
36 -91 43 -80 8 -119 40 -119 98 0 69 97 134 138 93z m-198 -86 c0 -11 29 -75
65 -144 36 -69 65 -130 65 -135 0 -6 -12 -15 -26 -22 -25 -11 -44 -8 -44 8 0
5 -20 51 -45 102 l-46 94 7 -111 c4 -85 3 -113 -7 -119 -8 -5 -38 20 -89 76
-43 46 -81 82 -84 78 -3 -3 12 -45 33 -95 55 -128 56 -131 30 -139 -27 -9 -31
-4 -59 75 -13 36 -39 100 -58 143 -39 87 -38 91 27 103 33 7 37 3 89 -55 51
-58 76 -76 67 -48 -2 6 -6 47 -10 89 l-6 78 33 20 c41 25 58 25 58 2z m-1950
-117 c16 -8 35 -25 41 -37 14 -26 14 -84 0 -120 -17 -45 -70 -97 -106 -104
-43 -8 -100 11 -120 39 -22 31 -19 103 6 155 36 74 111 102 179 67z m593 -41
c13 -5 13 -12 0 -61 -8 -30 -27 -116 -42 -189 -15 -74 -30 -137 -34 -140 -3
-4 -18 -3 -32 0 -18 5 -25 12 -21 21 6 17 -9 21 -19 5 -3 -5 -22 -10 -41 -10
-100 0 -116 146 -23 224 29 25 39 28 82 23 31 -3 50 0 52 7 1 6 8 37 15 69 12
58 23 67 63 51z m1017 -11 c51 -30 63 -83 29 -127 -25 -31 -22 -37 52 -93 45
-34 48 -39 32 -50 -29 -22 -50 -15 -108 38 -30 29 -58 49 -61 46 -3 -3 2 -33
12 -67 19 -67 12 -83 -30 -78 -15 3 -26 27 -53 128 -48 178 -48 180 7 201 57
23 85 23 120 2z m-1444 -23 c8 0 14 -6 14 -13 0 -10 13 -14 44 -13 50 1 86
-23 86 -58 0 -12 -12 -57 -26 -101 -15 -44 -29 -86 -30 -92 -4 -15 -50 -17
-59 -3 -3 5 6 48 20 95 29 95 28 115 -8 115 -33 0 -51 -24 -83 -108 -25 -70
-28 -73 -53 -67 -14 4 -28 8 -30 11 -2 2 10 39 27 81 16 43 35 98 42 121 8 33
15 42 26 38 9 -3 22 -6 30 -6z m1012 -25 c5 -25 -15 -35 -75 -35 -58 0 -60 -2
-47 -80 l6 -35 49 3 c40 3 49 1 49 -12 0 -9 0 -19 0 -23 0 -5 -21 -10 -47 -13
l-48 -5 3 -50 c1 -27 5 -65 8 -82 5 -32 4 -33 -30 -33 l-34 0 -6 63 c-14 177
-25 274 -31 289 -6 14 4 17 72 23 43 3 85 8 93 9 24 6 35 0 38 -19z m154 -42
c8 -16 35 -64 58 -108 23 -44 51 -95 63 -114 16 -27 18 -35 6 -42 -29 -18 -55
-10 -72 25 -16 34 -16 34 -58 25 -57 -13 -59 -15 -59 -55 0 -31 -2 -34 -31
-34 -30 0 -31 2 -25 33 3 17 13 88 22 157 10 69 22 128 28 132 23 16 52 7 68
-19z m-544 -79 c28 -32 28 -46 -2 -81 -19 -21 -35 -28 -77 -33 -47 -4 -54 -8
-51 -25 7 -39 34 -57 73 -51 52 8 61 -18 15 -41 -75 -35 -156 17 -156 101 0
127 127 211 198 130z"/>
<path d="M2449 2845 c-1 -41 -2 -81 -3 -87 -1 -8 15 -14 42 -16 l42 -3 0 90 0
91 -40 0 -40 0 -1 -75z"/>
<path d="M2550 2830 l0 -90 39 0 c22 0 42 3 45 8 2 4 2 45 -1 90 l-6 82 -38 0
-39 0 0 -90z"/>
<path d="M2187 2498 c6 -7 42 -52 81 -100 l71 -88 22 38 c33 54 79 112 90 112
19 0 7 -33 -30 -83 -68 -92 -68 -85 -3 -176 66 -93 70 -90 65 44 -1 44 -3 122
-3 173 l0 92 -151 0 c-120 0 -149 -3 -142 -12z"/>
<path d="M2147 2258 c3 -117 6 -219 9 -226 4 -15 106 -15 137 0 9 5 17 5 17 0
0 -10 145 -16 160 -7 9 6 -118 204 -130 205 -3 0 -21 -27 -39 -60 -19 -33 -41
-60 -48 -60 -21 0 -16 18 22 80 19 32 35 63 35 69 0 11 -156 211 -164 211 -1
0 -1 -96 1 -212z"/>
<path d="M2040 1963 c-26 -10 -50 -35 -50 -54 0 -9 15 -27 34 -38 28 -17 35
-29 40 -66 4 -25 4 -50 0 -56 -9 -15 14 -29 47 -29 27 0 39 15 39 51 0 18 8
20 68 19 4 0 7 -10 7 -23 0 -30 28 -28 37 3 3 14 12 44 19 67 30 106 6 162
-49 110 -38 -37 -95 -37 -128 -2 -23 25 -35 28 -64 18z m57 -30 c4 -9 1 -19
-5 -21 -7 -2 -12 -7 -12 -11 0 -4 29 -4 66 0 46 5 72 13 88 28 44 42 59 23 40
-53 -7 -28 -16 -64 -20 -81 l-7 -30 -7 30 c-4 20 -2 36 8 48 9 9 13 20 10 23
-3 3 -16 -9 -28 -26 -18 -25 -29 -31 -54 -30 -52 3 -57 1 -72 -35 -14 -34 -32
-51 -20 -20 3 9 0 37 -7 62 -9 35 -20 51 -44 66 -39 22 -41 31 -11 51 29 21
67 20 75 -1z m30 -180 c-3 -10 -5 -4 -5 12 0 17 2 24 5 18 2 -7 2 -21 0 -30z"/>
<path d="M751 1742 c-2 -24 22 -152 28 -152 9 0 49 138 42 146 -3 3 -14 -18
-23 -48 -9 -29 -17 -44 -18 -33 -2 26 -28 104 -29 87z"/>
<path d="M690 1673 c13 -18 25 -33 27 -33 8 0 -17 38 -33 51 -11 9 -9 2 6 -18z"/>
<path d="M3433 1683 c-40 -5 -83 -53 -83 -93 0 -34 44 -90 70 -90 22 0 35 -16
20 -25 -5 -3 -10 -15 -10 -26 0 -12 -10 -29 -21 -38 -29 -24 -18 -66 14 -56
25 8 34 8 94 -1 39 -6 46 -3 78 29 26 26 35 43 35 69 0 46 -20 72 -48 64 -12
-4 -22 -12 -22 -17 0 -5 -4 -9 -10 -9 -5 0 -10 6 -10 14 0 8 -6 16 -14 19 -13
5 -13 11 1 45 14 37 14 42 -6 81 -14 26 -28 40 -39 39 -9 0 -31 -3 -49 -5z
m19 -30 c2 -12 13 -18 33 -18 32 0 41 -18 31 -61 -7 -26 -59 -64 -89 -64 -26
0 -67 45 -67 73 0 29 37 80 51 71 6 -3 8 -12 5 -20 -3 -8 0 -14 7 -14 7 0 3
-7 -7 -15 -17 -13 -17 -15 -4 -15 24 0 29 13 18 49 -7 24 -5 31 5 31 7 0 15
-8 17 -17z m158 -158 c29 -35 -12 -113 -68 -130 -45 -13 -102 30 -102 77 0 16
41 58 57 58 7 0 22 -9 32 -19 19 -19 20 -19 36 5 18 28 28 30 45 9z m-170
-104 c0 -5 -7 -11 -15 -15 -9 -3 -15 0 -15 9 0 8 7 15 15 15 8 0 15 -4 15 -9z"/>
<path d="M865 1640 c-9 -16 -13 -30 -11 -30 3 0 12 14 21 30 9 17 13 30 11 30
-3 0 -12 -13 -21 -30z"/>
<path d="M630 1656 c0 -2 8 -10 18 -17 15 -13 16 -12 3 4 -13 16 -21 21 -21
13z"/>
<path d="M3234 1615 c-4 -8 -16 -15 -28 -15 -44 -1 -92 -64 -81 -107 8 -33 41
-72 72 -84 16 -6 20 -14 16 -29 -5 -19 -2 -21 28 -18 29 3 34 7 37 33 2 16 12
40 23 53 23 30 24 68 3 133 -14 41 -20 49 -40 49 -14 0 -27 -7 -30 -15z m24
-49 c2 -10 -2 -22 -10 -27 -10 -7 -10 -9 0 -9 7 0 15 7 18 15 9 23 33 18 40
-9 8 -33 -13 -94 -36 -106 -56 -30 -130 15 -130 77 0 45 42 85 84 81 21 -2 32
-9 34 -22z m2 -172 c0 -17 -22 -14 -28 4 -2 7 3 12 12 12 9 0 16 -7 16 -16z"/>
<path d="M4214 1578 c-6 -32 -7 -58 -3 -58 10 0 22 60 17 91 -2 15 -7 3 -14
-33z"/>
<path d="M4315 1584 c-9 -15 -12 -23 -6 -20 11 7 35 46 28 46 -3 0 -12 -12
-22 -26z"/>
<path d="M960 1580 c-13 -11 -29 -20 -37 -20 -15 0 -17 -16 -3 -25 6 -3 10
-21 10 -40 0 -42 10 -48 79 -51 58 -3 86 12 75 40 -3 9 -1 23 6 31 9 11 7 16
-9 27 -12 7 -21 20 -21 29 0 16 -27 29 -61 29 -9 0 -26 -9 -39 -20z"/>
<path d="M4176 1544 c-4 -14 -5 -28 -3 -31 3 -2 8 8 11 23 4 14 5 28 3 31 -3
2 -8 -8 -11 -23z"/>
<path d="M4331 1518 c-17 -17 -31 -37 -31 -42 0 -6 8 -2 18 9 9 11 28 30 42
43 13 12 19 22 13 22 -6 0 -25 -14 -42 -32z"/>
<path d="M1188 1504 c-5 -4 -8 -16 -8 -28 0 -20 0 -20 -15 0 -14 18 -14 18
-15 -7 0 -14 8 -35 18 -47 9 -11 22 -29 29 -39 10 -15 12 -11 11 27 -1 57 -11
104 -20 94z"/>
<path d="M1275 1480 c-4 -6 -10 -8 -15 -5 -11 7 -30 -51 -29 -89 0 -33 3 -30
29 34 5 14 17 35 26 48 9 12 12 22 6 22 -6 0 -14 -5 -17 -10z"/>
<path d="M1501 1463 c0 -15 4 -48 8 -73 8 -44 9 -44 10 22 0 37 -3 70 -9 73
-6 4 -10 -6 -9 -22z"/>
<path d="M2794 1443 c3 -29 12 -65 21 -80 l16 -28 -6 30 c-3 17 -12 53 -20 80
l-15 50 4 -52z"/>
<path d="M2842 1425 c1 -55 1 -57 8 -20 l6 40 24 -50 c17 -35 25 -45 28 -32 6
31 -7 65 -29 72 -11 4 -24 16 -29 28 -6 16 -9 5 -8 -38z"/>
<path d="M2921 1458 c-1 -15 4 -39 11 -53 12 -26 12 -26 24 22 7 26 11 50 9
52 -2 2 -7 -9 -11 -24 l-7 -28 -13 29 -12 29 -1 -27z"/>
<path d="M3003 1452 c-6 -15 -14 -38 -18 -52 -11 -40 11 -11 25 33 14 45 9 58
-7 19z"/>
<path d="M1460 1431 c11 -41 20 -51 20 -25 0 11 -7 29 -15 40 -13 17 -14 16
-5 -15z"/>
<path d="M2750 1450 c1 -8 7 -28 16 -45 l14 -30 -5 35 c-5 35 -25 67 -25 40z"/>
<path d="M1080 1441 c0 -5 7 -14 15 -21 8 -7 15 -22 15 -33 0 -15 3 -18 11
-10 6 6 8 19 5 30 -6 19 -46 49 -46 34z"/>
<path d="M1325 1440 c-4 -6 -10 -8 -15 -5 -10 6 -35 -63 -26 -72 3 -4 7 -4 9
-2 32 45 55 89 48 89 -6 0 -13 -5 -16 -10z"/>
<path d="M2706 1409 c16 -17 38 -35 49 -41 11 -6 2 8 -20 31 -21 22 -43 41
-49 41 -5 0 3 -14 20 -31z"/>
<path d="M1565 1397 c-16 -40 -20 -81 -6 -73 11 7 35 95 28 103 -4 3 -14 -10
-22 -30z"/>
<path d="M1623 1408 c-37 -41 -57 -98 -34 -98 11 0 90 63 90 73 1 13 -22 8
-41 -10 -25 -22 -23 -2 3 31 25 32 11 35 -18 4z"/>
<path d="M1336 1397 c-22 -23 -35 -57 -22 -57 10 0 59 71 53 76 -3 4 -17 -5
-31 -19z"/>
<path d="M1537 2223 c-4 -3 -7 -11 -7 -17 0 -6 5 -5 12 2 6 6 9 14 7 17 -3 3
-9 2 -12 -2z"/>
<path d="M2775 2190 c-3 -5 -1 -10 4 -10 6 0 11 5 11 10 0 6 -2 10 -4 10 -3 0
-8 -4 -11 -10z"/>
<path d="M2840 2190 c0 -5 5 -10 10 -10 6 0 10 5 10 10 0 6 -4 10 -10 10 -5 0
-10 -4 -10 -10z"/>
<path d="M2760 2118 c0 -23 19 -33 33 -18 9 10 9 11 0 6 -6 -3 -16 2 -22 11
-9 16 -10 16 -11 1z"/>
<path d="M1502 877 c-70 -75 -66 -208 5 -167 55 32 97 169 57 184 -27 10 -40
7 -62 -17z"/>
<path d="M2010 695 c-20 -21 -25 -37 -25 -83 0 -57 0 -57 30 -57 25 0 33 7 48
37 10 20 19 56 20 80 2 39 0 43 -23 46 -17 2 -34 -6 -50 -23z"/>
<path d="M3105 830 c-8 -12 15 -110 26 -110 15 0 59 43 59 59 0 43 -65 83 -85
51z"/>
<path d="M2876 683 c-10 -64 -8 -73 17 -73 47 0 52 14 23 64 -15 25 -28 46
-30 46 -2 0 -6 -17 -10 -37z"/>
<path d="M2275 675 c-26 -25 -34 -57 -12 -51 6 3 24 7 38 10 31 7 44 32 28 52
-16 20 -26 18 -54 -11z"/>
<path d="M2594 4730 c-32 -13 -72 -67 -80 -106 -20 -109 84 -199 190 -164 34
11 86 60 86 82 0 16 -58 1 -87 -22 -36 -28 -69 -25 -104 9 -59 60 -26 161 54
161 21 0 41 -7 52 -20 19 -21 60 -27 70 -9 9 13 -21 46 -57 65 -30 15 -91 18
-124 4z"/>
<path d="M2893 4656 c-41 -19 -65 -57 -67 -106 -1 -51 29 -91 82 -108 37 -12
46 -12 79 5 25 12 45 32 57 57 17 36 18 43 5 79 -24 68 -93 101 -156 73z m87
-56 c27 -27 25 -66 -5 -95 -29 -30 -49 -31 -75 -5 -23 23 -25 51 -9 83 23 42
57 49 89 17z"/>
<path d="M1996 4642 c-2 -4 2 -64 10 -132 7 -69 14 -133 14 -142 0 -12 8 -18
25 -18 30 0 30 3 13 178 -11 117 -12 122 -34 122 -13 0 -25 -3 -28 -8z"/>
<path d="M1868 4623 c-22 -5 -22 -9 -3 -63 19 -53 19 -51 -8 -41 -25 10 -79
-8 -92 -30 -23 -36 1 -137 40 -169 26 -22 77 -14 103 15 12 14 22 21 22 16 0
-12 30 -14 46 -3 13 8 -66 274 -82 278 -5 1 -17 0 -26 -3z m27 -164 c43 -82
-18 -153 -65 -76 -30 48 -25 97 10 109 23 8 39 -2 55 -33z"/>
<path d="M3125 4618 c-27 -82 -55 -190 -51 -197 3 -5 15 -11 25 -14 17 -4 23
5 43 66 25 77 41 93 81 83 36 -9 40 -31 17 -111 -20 -71 -17 -84 21 -85 19 0
52 119 47 170 -4 41 -44 73 -89 72 -17 0 -38 6 -46 14 -18 17 -42 18 -48 2z"/>
<path d="M2110 4573 c0 -5 14 -56 32 -115 31 -106 31 -108 12 -129 -10 -11
-26 -18 -36 -16 -26 7 -24 -30 2 -38 45 -14 73 15 137 145 35 69 63 128 63
133 0 4 -12 7 -28 7 -25 0 -30 -7 -56 -75 -16 -41 -30 -75 -31 -75 -2 0 -11
33 -20 73 -10 39 -24 78 -33 85 -17 13 -42 16 -42 5z"/>
<path d="M3389 4505 c-30 -16 -59 -70 -59 -109 0 -63 55 -113 111 -101 28 6
30 5 21 -12 -6 -10 -20 -27 -32 -38 -20 -18 -24 -18 -48 -4 -15 8 -31 24 -37
36 -5 12 -19 26 -32 32 -24 11 -29 2 -23 -39 3 -24 51 -69 86 -80 71 -24 102
3 174 150 46 93 52 112 40 121 -8 5 -23 7 -33 5 -10 -2 -29 8 -46 25 -33 33
-78 38 -122 14z m99 -51 c30 -21 29 -68 -3 -99 -28 -29 -42 -31 -73 -9 -29 20
-29 70 0 101 25 27 45 29 76 7z"/>
<path d="M1637 4445 c-18 -13 -18 -16 12 -59 52 -75 60 -117 25 -130 -25 -10
-44 5 -85 65 -22 33 -43 59 -47 59 -4 0 -15 -6 -24 -14 -16 -12 -14 -17 19
-67 53 -80 73 -99 105 -99 33 0 68 31 68 60 0 18 3 19 20 8 16 -10 22 -10 35
3 14 13 10 24 -40 99 -31 47 -59 86 -63 87 -4 1 -15 -4 -25 -12z"/>
<path d="M3609 4341 c-44 -43 -50 -80 -24 -131 54 -105 221 -61 217 57 -2 45
-17 70 -55 93 -52 32 -93 26 -138 -19z m125 -33 c21 -30 20 -50 -5 -82 -27
-34 -72 -35 -94 -2 -17 26 -12 50 18 84 26 28 61 28 81 0z"/>
<path d="M1394 4306 c-60 -27 -80 -86 -49 -146 21 -40 53 -60 98 -60 31 0 46
7 74 35 32 32 35 40 30 77 -10 77 -86 124 -153 94z m70 -58 c33 -30 42 -70 21
-92 -24 -23 -43 -20 -76 13 -63 64 -11 138 55 79z"/>
<path d="M3838 4197 c-88 -103 -95 -113 -80 -129 8 -10 18 -18 23 -18 8 0 188
210 192 224 1 5 -7 15 -18 22 -19 12 -27 5 -117 -99z"/>
<path d="M1242 4198 c-7 -7 -12 -23 -12 -36 0 -21 -2 -23 -16 -12 -12 11 -18
11 -30 -2 -14 -14 -9 -24 49 -96 61 -75 66 -79 81 -63 22 24 21 26 -19 78 -36
48 -43 71 -24 90 11 11 4 53 -10 53 -4 0 -12 -5 -19 -12z"/>
<path d="M1015 4122 c-17 -10 -45 -36 -63 -57 l-34 -38 109 -109 c78 -78 114
-107 125 -103 34 13 30 38 -13 81 l-41 42 26 38 c32 48 34 94 4 128 -31 35
-75 42 -113 18z m65 -52 c23 -23 25 -57 6 -82 -19 -26 -30 -23 -65 17 -37 42
-38 49 -9 69 30 21 44 20 68 -4z"/>
<path d="M3913 4120 c-34 -21 -63 -66 -63 -100 0 -34 28 -78 60 -95 31 -16 90
-20 90 -7 0 14 -35 42 -52 42 -27 0 -51 36 -44 66 l7 27 63 -62 63 -63 20 29
c29 42 33 58 22 97 -21 75 -100 107 -166 66z m93 -38 c22 -14 33 -47 22 -65
-9 -17 -13 -15 -43 20 -18 21 -31 41 -28 46 5 9 35 9 49 -1z"/>
<path d="M4118 3949 c-34 -19 -40 -46 -23 -99 22 -65 7 -91 -30 -54 -10 10
-14 26 -11 39 7 26 -18 65 -32 50 -11 -10 -15 -35 -13 -71 0 -12 14 -36 30
-53 38 -40 83 -42 107 -5 16 24 16 29 1 76 -17 54 -15 68 8 68 17 0 38 -36 30
-50 -7 -11 12 -50 24 -50 5 0 13 13 19 28 22 64 -58 152 -110 121z"/>
<path d="M1214 3805 c-6 -15 25 -55 42 -55 6 0 17 6 23 14 6 7 22 11 36 8 18
-3 25 0 25 12 0 10 -9 16 -24 16 -14 0 -27 4 -30 8 -9 14 -67 12 -72 -3z"/>
<path d="M1420 3755 c0 -14 4 -25 10 -25 5 0 9 -8 8 -17 -3 -36 2 -53 16 -53
8 0 22 -8 32 -17 16 -16 18 -16 34 4 11 15 21 18 31 12 21 -13 39 -11 39 6 0
8 -5 15 -12 15 -6 0 -3 7 8 15 18 14 17 14 -13 15 -18 0 -33 4 -33 9 0 5 -18
18 -40 30 -22 11 -40 18 -40 14 0 -4 -5 -2 -12 5 -19 19 -28 14 -28 -13z"/>
<path d="M4213 3749 c-17 -5 -43 -24 -58 -41 -23 -27 -26 -39 -22 -75 2 -23
12 -54 20 -67 16 -23 83 -54 94 -43 11 12 -10 48 -38 62 -30 16 -39 54 -19 85
11 18 10 19 58 -69 l41 -74 35 35 c30 30 36 43 36 77 0 33 -7 48 -32 75 -37
38 -68 48 -115 35z m94 -78 c8 -17 9 -31 2 -43 -15 -27 -23 -22 -47 28 l-22
45 27 -3 c17 -2 32 -12 40 -27z"/>
<path d="M870 3581 c0 -12 6 -21 16 -21 9 0 14 7 12 17 -5 25 -28 28 -28 4z"/>
<path d="M520 3475 c-10 -12 -9 -16 5 -21 17 -7 38 13 29 28 -8 12 -20 10 -34
-7z"/>
<path d="M289 3385 c-1 -3 -3 -9 -4 -15 -1 -5 -3 -17 -4 -26 -1 -10 -7 -14
-17 -10 -11 4 -19 -4 -30 -29 -23 -57 -78 -254 -72 -260 3 -3 17 -1 31 4 22 9
31 27 61 123 41 128 46 138 71 142 25 4 29 20 10 39 -8 9 -15 20 -15 26 0 11
-29 16 -31 6z"/>
<path d="M1930 3085 c0 -14 -6 -25 -13 -25 -18 0 -37 -34 -27 -50 4 -7 15 -10
24 -7 8 3 18 2 21 -3 13 -21 32 -8 45 29 11 35 11 40 -9 60 -28 28 -41 27 -41
-4z"/>
</g>
</svg>
