<svg width="32" height="32" viewBox="0 0 32 32" fill="none" xmlns="http://www.w3.org/2000/svg">
<path d="M29.3346 11.9999V19.9999C29.3346 23.3332 28.668 25.6665 27.1746 27.1732L18.668 18.6665L28.9747 8.35986C29.2147 9.4132 29.3346 10.6132 29.3346 11.9999Z" stroke="#0C0C1C" stroke-width="2" stroke-linecap="round" stroke-linejoin="round"/>
<path d="M28.9747 8.35984L8.36129 28.9732C4.34795 28.0532 2.66797 25.2798 2.66797 19.9998V11.9998C2.66797 5.33317 5.33464 2.6665 12.0013 2.6665H20.0013C25.2813 2.6665 28.0547 4.34651 28.9747 8.35984Z" stroke="#0C0C1C" stroke-width="2" stroke-linecap="round" stroke-linejoin="round"/>
<path d="M27.1727 27.1732C25.6661 28.6665 23.3327 29.3332 19.9994 29.3332H11.9994C10.6127 29.3332 9.41271 29.2132 8.35938 28.9732L18.6661 18.6665L27.1727 27.1732Z" stroke="#0C0C1C" stroke-width="2" stroke-linecap="round" stroke-linejoin="round"/>
<path d="M8.32035 10.64C9.22702 6.73329 15.0937 6.73329 16.0004 10.64C16.5204 12.9333 15.0803 14.88 13.8137 16.08C12.8937 16.96 11.4404 16.96 10.507 16.08C9.24037 14.88 7.78702 12.9333 8.32035 10.64Z" stroke="#0C0C1C" stroke-width="2"/>
<path d="M12.1281 11.6003H12.1401" stroke="#0C0C1C" stroke-width="2" stroke-linecap="round" stroke-linejoin="round"/>
</svg>
