<svg width="48" height="48" viewBox="0 0 48 48" fill="none" xmlns="http://www.w3.org/2000/svg">
<path d="M12.5958 46.5982H35.4018V45.0991H12.5958V46.5982ZM15.3211 43.6984H32.6766V36.6574C32.6766 36.2474 32.3481 35.9079 31.9402 35.9079H16.0667C15.6589 35.9079 15.3211 36.2474 15.3211 36.6574V43.6984ZM30.4839 42.1993H17.5045C17.1224 42.1993 16.8124 41.8866 16.8124 41.4943V38.1037C16.8124 37.7196 17.1235 37.3987 17.5045 37.3987H30.4839C30.8742 37.3987 31.1853 37.7196 31.1853 38.1037V41.4943C31.1853 41.8866 30.8742 42.1993 30.4839 42.1993ZM18.2059 40.7985H29.7907V38.8087H18.2059V40.7985ZM22.4761 31.0896L21.9972 34.4988H26.0005L25.5299 31.0896C24.4381 31.2418 23.5596 31.2418 22.4761 31.0896ZM10.296 2.89984H37.7007V2.15029C37.7007 1.74032 37.3721 1.40074 36.9643 1.40074H11.0417C10.6338 1.40074 10.296 1.74032 10.296 2.15029V2.89984ZM12.462 4.30058V22.5496C12.462 24.236 13.8998 25.8428 15.8618 27.11C18.3831 28.752 21.7119 29.8048 23.9932 29.8048C26.2745 29.8048 29.6125 28.752 32.1338 27.11C34.0866 25.8428 35.5429 24.2371 35.5429 22.5496V4.30161H12.462V4.30058ZM36.9375 11.7246V18.3101C38.4196 17.4353 39.6277 16.1153 40.2848 14.5002C40.5958 13.7238 41.0923 11.8054 40.3291 11.0651C39.672 10.4222 38.0035 11.1811 36.9375 11.7256V11.7246ZM36.9375 8.52144V10.1727C38.3042 9.54844 40.1241 8.95936 41.2787 10.0392C42.5661 11.2442 42.1222 13.671 41.5712 15.0272C40.7009 17.1775 38.9963 18.8909 36.9375 19.8992V21.5143C39.6895 20.3185 41.7844 18.4716 42.9565 15.5976C43.7732 13.5809 44.0657 10.6272 42.3437 8.98525C40.8255 7.53999 38.7399 7.81641 36.9375 8.52144ZM11.0602 18.3111V11.7256C9.99524 11.1811 8.32571 10.4233 7.6686 11.0651C6.91366 11.8054 7.40185 13.7248 7.72216 14.5002C8.37 16.1153 9.57709 17.4363 11.0602 18.3101V18.3111ZM11.0602 21.5143V19.8992C9.00032 18.9002 7.29577 17.1775 6.4265 15.0272C5.87651 13.671 5.4326 11.2432 6.719 10.0392C7.87356 8.95936 9.69244 9.54844 11.0602 10.1727V8.52144C9.26707 7.81641 7.17217 7.53067 5.65404 8.98525C3.93198 10.6365 4.22448 13.5716 5.05049 15.5976C6.2133 18.4705 8.3082 20.3185 11.0602 21.5143ZM24.9891 13.8842L24.0035 10.8053L23.0096 13.8842C22.8582 14.3656 22.4328 14.6783 21.9261 14.6783L18.7127 14.669L21.3133 16.5698C21.7211 16.8555 21.89 17.3731 21.7304 17.8463L20.7272 20.9252L23.3278 19.0151C23.7357 18.7211 24.2599 18.7211 24.6688 19.0151L27.2694 20.9252L26.2663 17.8463C26.1149 17.3731 26.2755 16.8555 26.6834 16.5698L29.284 14.669L26.0706 14.6783C25.5649 14.6783 25.1385 14.3656 24.9871 13.8842H24.9891ZM25.0777 9.46665L26.2941 13.232L30.2264 13.2227C31.3274 13.2227 31.7795 14.6503 30.8917 15.2932L27.7051 17.6133L28.9297 21.3704C29.2675 22.4139 28.0687 23.2981 27.1809 22.6469L24.0025 20.3175L20.8158 22.6469C19.928 23.2981 18.7291 22.415 19.067 21.3704L20.2916 17.6133L17.1049 15.2932C16.2171 14.6503 16.6703 13.2227 17.7703 13.2227L21.7119 13.232L22.919 9.46665C23.2568 8.41377 24.7389 8.41377 25.0767 9.46665H25.0777ZM31.7177 47.9979H11.9027C11.5123 47.9979 11.2013 47.6853 11.2013 47.2929V44.3931C11.2013 44.009 11.5123 43.6973 11.9027 43.6973H13.9265V36.6564C13.9265 35.4699 14.8854 34.4968 16.0657 34.4968H20.5933L21.1083 30.8205C19.102 30.3473 16.9092 29.4549 15.1068 28.2861C12.9584 26.8853 11.3249 25.0736 11.0942 23.0393C7.72937 21.7182 5.15555 19.5679 3.75277 16.1235C2.70532 13.5446 2.5189 10.1096 4.69413 7.97688C6.46048 6.23656 8.90247 6.29972 11.0592 7.03994V4.30058H9.5946C9.21249 4.30058 8.90248 3.98792 8.90248 3.60487V2.15029C8.90248 0.963851 9.86135 0 11.0417 0H36.9643C38.1363 0 39.0952 0.963851 39.0952 2.15029V3.60487C39.0952 3.98896 38.7842 4.30058 38.4031 4.30058H36.9385V7.03994C39.1045 6.29972 41.5455 6.23656 43.3211 7.9862C45.487 10.1189 45.2831 13.554 44.2439 16.1246C42.8504 19.569 40.2673 21.7193 36.9025 23.0403C36.681 25.0746 35.0383 26.8864 32.8898 28.2871C31.0874 29.456 28.8947 30.3484 26.8883 30.8215L27.4033 34.4978H31.9392C33.1113 34.4978 34.0701 35.471 34.0701 36.6574V43.6984H36.094C36.4843 43.6984 36.7954 44.011 36.7954 44.3941V47.2939C36.7954 47.6863 36.4843 47.999 36.094 47.999H31.7177V47.9979Z" fill="#DCFD68"/>
</svg>
