<svg width="48" height="48" viewBox="0 0 48 48" fill="none" xmlns="http://www.w3.org/2000/svg">
<g clip-path="url(#clip0_101_1178)">
<path d="M34.7852 20.8468C28.8224 14.9567 19.169 14.9567 13.2146 20.8468C7.26009 26.737 7.26009 36.286 13.2146 42.1751C19.169 48.0652 28.8224 48.0652 34.7852 42.1751C40.7397 36.285 40.7397 26.7359 34.7852 20.8468ZM25.5474 27.9411L23.9952 23.1929L22.4524 27.9411C22.2808 28.4681 21.8024 28.8066 21.2435 28.8066L16.2007 28.7973L20.2879 31.7243C20.739 32.0452 20.919 32.6074 20.7484 33.1251L19.1784 37.8639L23.2562 34.9276C23.7074 34.5974 24.2935 34.5974 24.7446 34.9276L28.8224 37.8639L27.2524 33.1251C27.0808 32.6074 27.2618 32.0452 27.7129 31.7243L31.7907 28.7973L26.7563 28.8066C26.1974 28.8066 25.719 28.467 25.5474 27.9411ZM25.2041 22.3098L26.8641 27.4058L32.2774 27.3965C33.5041 27.3965 34.0003 28.9495 33.0174 29.6546L28.633 32.7958L30.3202 37.8825C30.6897 39.0245 29.3635 39.9978 28.3713 39.2751L23.9962 36.1245L19.6296 39.2751C18.6373 39.9978 17.3018 39.0256 17.6807 37.8825L19.3679 32.7958L14.9834 29.6546C13.9912 28.9495 14.4967 27.3965 15.7234 27.3965L21.1368 27.4058L22.7968 22.3098C23.1757 21.1585 24.8262 21.1585 25.2051 22.3098H25.2041ZM32.7736 22.8368C27.9286 18.0441 20.0713 18.0441 15.2262 22.8368C10.3812 27.6294 10.3812 35.4018 15.2262 40.1945C20.0713 44.9871 27.9286 44.9871 32.7736 40.1945C37.6186 35.4018 37.6186 27.6294 32.7736 22.8368ZM23.9952 17.8391C31.6369 17.8391 37.8248 23.9612 37.8248 31.511C37.8248 39.0608 31.6358 45.1921 23.9952 45.1921C16.3545 45.1921 10.174 39.0701 10.174 31.511C10.174 23.9519 16.3629 17.8391 23.9952 17.8391ZM17.5812 16.2861L12.7634 1.41015H7.67561L13.3234 18.8476C14.5951 17.8039 16.0301 16.9291 17.5812 16.2861ZM30.4186 16.2861C31.9708 16.9291 33.4047 17.8029 34.6764 18.8476L40.3148 1.41015H35.2353L30.4175 16.2871L30.4186 16.2861ZM23.2552 13.5103L19.3396 1.41015H14.2518L18.9157 15.8047C20.1341 15.4205 21.4235 15.171 22.7497 15.0644L23.2552 13.5114V13.5103ZM41.2892 0C41.7675 0 42.1098 0.455555 41.9654 0.919393L35.8309 19.8922C42.2993 26.3352 42.2815 36.7499 35.7859 43.1753C29.2725 49.61 18.7169 49.61 12.2129 43.1753C5.71731 36.7499 5.69951 26.3352 12.1679 19.8922L6.0334 0.919393C5.88896 0.455555 6.23122 0 6.70954 0H19.8535C20.1969 0 20.4763 0.231919 20.5485 0.544596L23.9952 11.2087L27.4502 0.544596C27.5225 0.231919 27.8019 0 28.1452 0H41.2892ZM24.4107 15.0281C26.0163 15.0634 27.5957 15.3315 29.0841 15.8047L33.748 1.41015H28.6602L24.2579 15.0281H24.4118H24.4107Z" fill="#DCFD68"/>
</g>
<defs>
<clipPath id="clip0_101_1178">
<rect width="48" height="48" fill="white"/>
</clipPath>
</defs>
</svg>
