<svg width="48" height="48" viewBox="0 0 48 48" fill="none" xmlns="http://www.w3.org/2000/svg">
<g clip-path="url(#clip0_101_1244)">
<path d="M28.9229 43.5815V22.8335H20.0781V43.5815H28.9229ZM42.2869 43.5815V17.5651H33.442V43.5815H42.2869ZM5.27476 43.5815V27.3735C5.27476 26.9627 5.60239 26.6354 5.99448 26.6354H16.2787C16.6708 26.6354 16.9984 26.9627 16.9984 27.3735V43.5815H18.6376V22.0954C18.6376 21.6933 18.9653 21.3671 19.3573 21.3671H29.6416C30.0337 21.3671 30.3518 21.6944 30.3518 22.0954V43.5815H32.0005V16.8271C32.0005 16.425 32.3281 16.089 32.7202 16.089H42.996C43.3966 16.089 43.7157 16.425 43.7157 16.8271V43.5815H47.3228C48.2433 43.5815 48.9989 44.3564 48.9989 45.3004V47.2621C48.9989 47.6728 48.6798 48.0002 48.2792 48.0002H0.719718C0.31917 48.0002 0 47.6728 0 47.2621V45.3004C0 44.3564 0.747196 43.5815 1.67617 43.5815H5.27476ZM15.559 43.5815V28.1028H6.71314V43.5815H15.558H15.559ZM38.7147 4.94441L37.8586 2.23493L37.011 4.94441C36.8652 5.41152 36.4467 5.71932 35.9637 5.71932H33.1947L35.4353 7.38185C35.8274 7.67122 35.9817 8.17627 35.8358 8.64338L34.9703 11.3529L37.2203 9.67082C37.6124 9.38145 38.1133 9.38145 38.5044 9.67082L40.7449 11.3529L39.8889 8.64338C39.7335 8.17627 39.8984 7.67231 40.2894 7.38185L42.5299 5.71932H39.761C39.278 5.71932 38.8595 5.41152 38.7136 4.94441H38.7147ZM38.906 0.778318L39.9988 4.25295L43.5699 4.2432C44.6352 4.2432 45.0727 5.65429 44.2167 6.27964L41.3198 8.42771L42.4316 11.9023C42.7593 12.9298 41.6031 13.8076 40.746 13.1639L37.8586 11.006L34.9798 13.1639C34.1142 13.8087 32.9665 12.9309 33.2941 11.9023L34.3964 8.42771L31.5091 6.27964C30.653 5.65429 31.0905 4.2432 32.1559 4.2432L35.7174 4.25295L36.8198 0.778318C37.1389 -0.25887 38.5784 -0.25887 38.906 0.778318ZM25.3518 10.1564L24.4958 7.44688L23.6482 10.1564C23.5023 10.6235 23.0838 10.9313 22.6008 10.9313L19.8319 10.9215L22.0724 12.5938C22.4645 12.8832 22.6283 13.3882 22.4729 13.8553L21.6169 16.5648L23.8574 14.8828C24.2495 14.5934 24.7505 14.5934 25.1415 14.8828L27.3916 16.5648L26.526 13.8553C26.3706 13.3882 26.5355 12.8843 26.9265 12.5938L29.1766 10.9215L26.3981 10.9313C25.9151 10.9313 25.4966 10.6235 25.3508 10.1564H25.3518ZM25.5431 5.99027L26.6359 9.4649L30.207 9.45514C31.2723 9.45514 31.7099 10.8565 30.8538 11.4916L27.9665 13.6397L29.0688 17.1143C29.3964 18.1417 28.2402 19.0109 27.3831 18.3661L24.4958 16.218L21.6169 18.3661C20.7608 19.0109 19.6036 18.1417 19.9312 17.1143L21.0335 13.6397L18.1462 11.4916C17.2901 10.8565 17.7277 9.45514 18.793 9.45514L22.3546 9.4649L23.4569 5.99027C23.7845 4.95308 25.2155 4.95308 25.5431 5.99027ZM11.9879 15.4257L11.1403 12.7163L10.2842 15.4257C10.1384 15.8929 9.71989 16.2007 9.23691 16.2007H6.46795L8.70848 17.8632C9.10057 18.1526 9.26439 18.6576 9.10903 19.1247L8.25298 21.8342L10.4935 20.1532C10.8856 19.8639 11.3865 19.8639 11.7871 20.1532L14.0276 21.8342L13.1621 19.1247C13.0162 18.6576 13.1716 18.1536 13.5626 17.8632L15.8127 16.2007H13.0342C12.5512 16.2007 12.1327 15.8929 11.9868 15.4257H11.9879ZM12.1792 11.2597L13.272 14.7343H16.8431C17.9084 14.7245 18.3459 16.1259 17.4899 16.7707L14.6026 18.9101L15.7144 22.3848C16.042 23.4122 14.8763 24.2901 14.0202 23.6463L11.1414 21.4885L8.25403 23.6463C7.39798 24.2912 6.24073 23.4133 6.56835 22.3848L7.67065 18.9101L4.78332 16.7707C3.92727 16.1259 4.36375 14.7245 5.43012 14.7343H9.00123L10.094 11.2597C10.4216 10.2225 11.8526 10.2225 12.1802 11.2597H12.1792ZM1.42992 45.3004V46.524H47.5606V45.3004C47.5606 45.1693 47.4517 45.0577 47.3238 45.0577H1.67617C1.53984 45.0577 1.42992 45.1693 1.42992 45.3004Z" fill="#DCFD68"/>
</g>
<defs>
<clipPath id="clip0_101_1244">
<rect width="48" height="48" fill="white"/>
</clipPath>
</defs>
</svg>
